<?xml version="1.0" encoding="UTF-8"?>
<svg xmlns="http://www.w3.org/2000/svg" xmlns:xlink="http://www.w3.org/1999/xlink" width="36px" height="30px" viewBox="0 0 35 30" version="1.1">
<g id="surface1">
<path style=" stroke:none;fill-rule:nonzero;fill:rgb(0%,0%,0%);fill-opacity:1;" d="M 14.578125 28.066406 C 15.011719 28.09375 15.351562 28.460938 15.351562 28.90625 C 15.351562 29.351562 15.011719 29.71875 14.578125 29.742188 C 7.578125 29.742188 1.578125 24.636719 0.296875 17.59375 C -0.984375 10.550781 2.820312 3.578125 9.347656 0.996094 C 15.878906 -1.582031 23.273438 0.96875 26.949219 7.066406 L 27.121094 6.191406 C 27.152344 5.890625 27.34375 5.632812 27.617188 5.523438 C 27.894531 5.417969 28.207031 5.476562 28.425781 5.679688 C 28.644531 5.878906 28.734375 6.191406 28.65625 6.484375 L 28.089844 9.347656 C 28.042969 9.554688 27.917969 9.734375 27.742188 9.847656 C 27.566406 9.960938 27.355469 9.996094 27.152344 9.949219 L 24.414062 9.304688 C 24.007812 9.195312 23.757812 8.773438 23.851562 8.351562 C 23.945312 7.933594 24.347656 7.664062 24.761719 7.746094 L 25.542969 7.933594 C 22.28125 2.523438 15.714844 0.261719 9.921875 2.554688 C 4.128906 4.847656 0.753906 11.039062 1.894531 17.289062 C 3.035156 23.539062 8.367188 28.070312 14.578125 28.066406 Z M 20.1875 14.359375 C 20.339844 14.480469 20.429688 14.671875 20.429688 14.871094 C 20.429688 15.074219 20.339844 15.261719 20.1875 15.386719 L 18.796875 16.484375 C 18.570312 16.664062 18.253906 16.664062 18.027344 16.484375 C 17.800781 16.304688 17.71875 15.992188 17.828125 15.722656 L 16.011719 15.722656 C 15.667969 16.328125 15 16.660156 14.324219 16.550781 C 13.644531 16.445312 13.105469 15.925781 12.957031 15.242188 C 12.808594 14.558594 13.085938 13.851562 13.652344 13.460938 L 13.683594 10.445312 C 13.417969 10.570312 13.101562 10.492188 12.921875 10.253906 C 12.746094 10.019531 12.75 9.6875 12.933594 9.457031 L 14.039062 8.054688 C 14.15625 7.910156 14.328125 7.820312 14.507812 7.816406 C 14.714844 7.8125 14.910156 7.910156 15.027344 8.078125 L 16.074219 9.535156 C 16.238281 9.765625 16.234375 10.078125 16.066406 10.304688 C 15.894531 10.535156 15.597656 10.621094 15.339844 10.515625 L 15.320312 13.363281 C 15.605469 13.511719 15.84375 13.742188 16.007812 14.027344 L 17.824219 14.027344 C 17.703125 13.753906 17.78125 13.433594 18.011719 13.25 C 18.246094 13.066406 18.566406 13.070312 18.796875 13.257812 Z M 23.464844 22.476562 L 24.914062 26.367188 L 25.644531 24.246094 L 25.285156 23.84375 C 25.019531 23.441406 25.109375 22.96875 25.605469 22.902344 C 25.785156 22.886719 25.96875 22.886719 26.148438 22.902344 C 26.34375 22.890625 26.542969 22.898438 26.742188 22.925781 C 27.199219 23.03125 27.25 23.488281 27.023438 23.851562 L 26.667969 24.25 L 27.398438 26.375 L 28.707031 22.480469 C 29.652344 23.351562 32.195312 23.527344 33.25 24.121094 C 34.695312 24.949219 34.652344 26.273438 34.957031 27.753906 C 32.078125 30.6875 20.214844 30.820312 17.214844 27.746094 C 17.527344 26.292969 17.496094 24.929688 18.933594 24.113281 C 20.210938 23.386719 22.417969 23.441406 23.480469 22.476562 Z M 23.199219 19.859375 C 23.074219 19.863281 22.949219 19.835938 22.84375 19.769531 C 22.691406 19.675781 22.570312 19.53125 22.503906 19.359375 C 22.347656 19.003906 22.222656 18.0625 22.617188 17.792969 L 22.542969 17.742188 L 22.542969 17.636719 C 22.542969 17.449219 22.523438 17.21875 22.523438 16.976562 C 22.523438 16.105469 22.492188 15.015625 21.773438 14.800781 L 21.46875 14.710938 L 21.671875 14.460938 C 22.199219 13.792969 22.800781 13.1875 23.460938 12.652344 C 24.058594 12.140625 24.769531 11.796875 25.53125 11.648438 C 26.25 11.535156 26.980469 11.738281 27.539062 12.210938 C 27.734375 12.375 27.917969 12.554688 28.082031 12.753906 C 28.722656 12.820312 29.308594 13.160156 29.695312 13.695312 C 29.933594 14.007812 30.109375 14.367188 30.21875 14.75 C 30.332031 15.136719 30.378906 15.542969 30.359375 15.949219 C 30.335938 16.683594 30.035156 17.378906 29.519531 17.890625 C 29.613281 17.890625 29.703125 17.914062 29.78125 17.957031 C 30.039062 18.128906 30.136719 18.464844 30.011719 18.75 C 29.9375 18.992188 29.835938 19.273438 29.742188 19.507812 C 29.632812 19.828125 29.457031 19.886719 29.144531 19.851562 C 28.429688 23.050781 24.105469 23.167969 23.199219 19.851562 Z M 8.625 5.75 C 8.488281 5.527344 8.480469 5.242188 8.605469 5.011719 C 8.730469 4.78125 8.96875 4.640625 9.226562 4.648438 C 9.484375 4.652344 9.71875 4.800781 9.835938 5.035156 L 10.355469 5.960938 C 10.550781 6.304688 10.4375 6.746094 10.101562 6.949219 C 9.765625 7.148438 9.332031 7.03125 9.136719 6.6875 Z M 4.964844 10.019531 C 4.652344 9.8125 4.554688 9.386719 4.742188 9.058594 C 4.925781 8.726562 5.332031 8.605469 5.667969 8.777344 L 6.582031 9.304688 C 6.800781 9.429688 6.9375 9.667969 6.941406 9.925781 C 6.941406 10.183594 6.808594 10.421875 6.585938 10.550781 C 6.367188 10.679688 6.097656 10.675781 5.882812 10.542969 L 4.976562 10.011719 Z M 3.882812 15.585938 C 3.496094 15.585938 3.183594 15.265625 3.183594 14.871094 C 3.183594 14.476562 3.496094 14.15625 3.882812 14.15625 L 4.925781 14.15625 C 5.3125 14.15625 5.625 14.476562 5.625 14.871094 C 5.625 15.265625 5.3125 15.585938 4.925781 15.585938 Z M 5.664062 20.964844 C 5.332031 21.136719 4.925781 21.015625 4.738281 20.683594 C 4.554688 20.351562 4.652344 19.929688 4.96875 19.726562 L 5.871094 19.191406 C 6.203125 18.988281 6.632812 19.105469 6.832031 19.445312 C 7.027344 19.789062 6.914062 20.226562 6.582031 20.429688 Z M 19.316406 5.03125 C 19.511719 4.691406 19.941406 4.574219 20.273438 4.773438 C 20.609375 4.972656 20.722656 5.410156 20.527344 5.75 L 20.003906 6.6875 C 19.808594 7.03125 19.378906 7.144531 19.046875 6.941406 C 18.710938 6.742188 18.597656 6.300781 18.796875 5.960938 Z M 9.835938 24.714844 C 9.644531 25.058594 9.214844 25.175781 8.878906 24.976562 C 8.546875 24.78125 8.429688 24.339844 8.625 24 L 9.136719 23.066406 C 9.332031 22.722656 9.757812 22.605469 10.09375 22.804688 C 10.425781 23.003906 10.542969 23.441406 10.347656 23.785156 Z M 13.878906 3.925781 C 13.902344 3.546875 14.207031 3.253906 14.574219 3.253906 C 14.945312 3.253906 15.25 3.546875 15.273438 3.925781 L 15.273438 4.996094 C 15.289062 5.261719 15.160156 5.515625 14.9375 5.652344 C 14.714844 5.789062 14.4375 5.789062 14.214844 5.652344 C 13.992188 5.515625 13.863281 5.261719 13.878906 4.996094 Z M 15.277344 25.816406 C 15.277344 26.210938 14.964844 26.53125 14.578125 26.53125 C 14.191406 26.53125 13.878906 26.210938 13.878906 25.816406 L 13.878906 24.75 C 13.878906 24.355469 14.191406 24.035156 14.578125 24.035156 C 14.964844 24.035156 15.277344 24.355469 15.277344 24.75 Z M 15.277344 25.816406 "/>
</g>
</svg>
